<svg width="25" height="20" viewBox="0 0 25 20" fill="none" xmlns="http://www.w3.org/2000/svg">
<path fill-rule="evenodd" clip-rule="evenodd" d="M24.4778 0H21.335C21.1005 0 20.8948 0.193449 20.8321 0.430592L18.2109 11.4509L12.8883 5.59969C12.7847 5.47795 12.6424 5.41692 12.5001 5.41692C12.3578 5.41692 12.2152 5.47795 12.1116 5.59969L6.78902 11.4509L4.16815 0.430592C4.1054 0.193449 3.89941 0 3.66552 0H0.522701C0.181703 0 -0.0680248 0.367887 0.016591 0.715763L4.50756 19.6154C4.56714 19.8582 4.77535 20 5.01336 20H7.8773C8.16537 20 8.39957 19.7825 8.39957 19.479V16.104C8.39957 15.9753 8.44203 15.8502 8.52031 15.7521L12.0992 11.8464C12.3081 11.5826 12.6922 11.5826 12.901 11.8464L16.4457 15.7521C16.5239 15.8502 16.5664 15.9753 16.5664 16.104V19.4794C16.5664 19.7829 16.8006 20 17.0887 20H19.9872C20.2252 20 20.4331 19.8582 20.493 19.6154L24.9833 0.715763C25.0682 0.367887 24.8185 0 24.4778 0Z" fill="#025A65"/>
</svg>
